<svg xmlns="http://www.w3.org/2000/svg" width="23" height="23" viewBox="0 0 23 23" fill="none">
<g clip-path="url(#clip0_1286_614)">
<path fill-rule="evenodd" clip-rule="evenodd" d="M22.9997 11.5C22.9997 17.8513 17.9466 23 11.7132 23C5.47988 23 0.426758 17.8513 0.426758 11.5C0.426758 5.14873 5.47988 0 11.7132 0C17.9466 0 22.9997 5.14873 22.9997 11.5ZM12.1177 8.48981C11.0199 8.95505 8.82589 9.91798 5.53566 11.3786C5.00138 11.5951 4.7215 11.8069 4.69602 12.014C4.65296 12.3639 5.08309 12.5017 5.66882 12.6894C5.74849 12.7149 5.83105 12.7414 5.91568 12.7694C6.49195 12.9603 7.26713 13.1836 7.67011 13.1924C8.03566 13.2005 8.44365 13.0469 8.89408 12.7318C11.9683 10.6174 13.5551 9.54865 13.6548 9.52561C13.7251 9.50936 13.8225 9.48892 13.8885 9.54869C13.9545 9.60845 13.948 9.72164 13.941 9.752C13.8984 9.93709 12.2099 11.5365 11.3362 12.3642C11.0638 12.6222 10.8706 12.8053 10.8311 12.8471C10.7426 12.9407 10.6524 13.0293 10.5657 13.1144C10.0304 13.6403 9.6289 14.0346 10.588 14.6786C11.0489 14.9881 11.4177 15.244 11.7856 15.4993C12.1874 15.7781 12.5882 16.0562 13.1067 16.4025C13.2388 16.4908 13.365 16.5824 13.4879 16.6717C13.9555 17.0114 14.3756 17.3165 14.8947 17.2679C15.1963 17.2396 15.5078 16.9506 15.666 16.0888C16.0399 14.0522 16.7748 9.63935 16.9447 7.82093C16.9596 7.66162 16.9409 7.45772 16.9258 7.36822C16.9108 7.27871 16.8794 7.15119 16.7652 7.05678C16.63 6.94498 16.4212 6.9214 16.3278 6.92308C15.9033 6.9307 15.252 7.16145 12.1177 8.48981Z" fill="#0078FF"/>
</g>
<defs>
<clipPath id="clip0_1286_614">
<rect width="22.5729" height="23" fill="white" transform="translate(0.426758)"/>
</clipPath>
</defs>
</svg>