<svg xmlns="http://www.w3.org/2000/svg" width="38" height="34" viewBox="0 0 38 34" fill="none">
<path d="M36.4547 8.65979L28.5571 1.63286C27.8943 1.04318 26.9955 0.711914 26.0583 0.711914C25.1211 0.711914 24.2223 1.04318 23.5595 1.63286L1.76654 21.0261C1.43722 21.3174 1.17612 21.6639 0.998357 22.0457C0.820597 22.4274 0.729713 22.8367 0.73097 23.2499V30.2784C0.73097 31.1127 1.10334 31.9127 1.76616 32.5026C2.42899 33.0925 3.32797 33.4239 4.26535 33.4239H33.9541C34.5165 33.4239 35.0559 33.2251 35.4536 32.8711C35.8513 32.5172 36.0747 32.0372 36.0747 31.5366C36.0747 31.0361 35.8513 30.5561 35.4536 30.2021C35.0559 29.8482 34.5165 29.6494 33.9541 29.6494H17.8727L36.4547 13.109C36.783 12.8169 37.0435 12.4701 37.2212 12.0884C37.3989 11.7067 37.4904 11.2976 37.4904 10.8844C37.4904 10.4712 37.3989 10.0621 37.2212 9.6804C37.0435 9.29869 36.783 8.95188 36.4547 8.65979ZM19.8166 10.3049L21.7605 12.0349L9.21347 23.2012L7.26957 21.4712L19.8166 10.3049ZM4.97222 29.6494V24.7739L7.7149 27.2132L10.4505 29.6494H4.97222ZM14.1616 27.6048L12.2177 25.8748L24.7647 14.7085L26.7086 16.4385L14.1616 27.6048ZM29.7129 13.7648L22.8208 7.63123L26.0618 4.74685L32.9539 10.8805L29.7129 13.7648Z" fill="#0013F4"/>
</svg>