<svg xmlns="http://www.w3.org/2000/svg" width="22" height="23" viewBox="0 0 22 23" fill="none">
<path d="M21.7809 6.90004C21.7809 6.90004 21.566 5.31429 20.9043 4.61801C20.0664 3.7016 19.1297 3.69711 18.7 3.6432C15.6234 3.40961 11.0043 3.40961 11.0043 3.40961H10.9957C10.9957 3.40961 6.37656 3.40961 3.3 3.6432C2.87031 3.69711 1.93359 3.7016 1.0957 4.61801C0.433984 5.31429 0.223438 6.90004 0.223438 6.90004C0.223438 6.90004 0 8.76429 0 10.6241V12.367C0 14.2268 0.219141 16.0911 0.219141 16.0911C0.219141 16.0911 0.433984 17.6768 1.09141 18.3731C1.9293 19.2895 3.0293 19.258 3.51914 19.3569C5.28086 19.5321 11 19.586 11 19.586C11 19.586 15.6234 19.577 18.7 19.3479C19.1297 19.294 20.0664 19.2895 20.9043 18.3731C21.566 17.6768 21.7809 16.0911 21.7809 16.0911C21.7809 16.0911 22 14.2313 22 12.367V10.6241C22 8.76429 21.7809 6.90004 21.7809 6.90004ZM8.72695 14.4828V8.01859L14.6695 11.262L8.72695 14.4828Z" fill="#0078FF"/>
</svg>