<svg xmlns="http://www.w3.org/2000/svg" width="47" height="42" viewBox="0 0 47 42" fill="none">
<rect width="47" height="42" rx="5" fill="#3F52FF"/>
<path d="M37.2482 8.43781C36.519 7.75648 35.4398 7.50448 34.4336 7.77115L10.969 13.9698C9.90732 14.2391 9.15482 15.0085 8.95212 15.9845C8.74503 16.9791 9.46837 18.2431 10.4134 18.7711L17.7502 22.8671C18.5027 23.2885 19.474 23.1831 20.0967 22.6125L28.4982 14.9311C28.9211 14.5298 29.6211 14.5298 30.044 14.9311C30.4669 15.3165 30.4669 15.9445 30.044 16.3445L21.6279 24.0258C21.0038 24.5965 20.8871 25.4818 21.3465 26.1711L25.8294 32.9045C26.3544 33.7031 27.2586 34.1578 28.2502 34.1578C28.3669 34.1578 28.4982 34.1578 28.6148 34.1431C29.7523 34.0111 30.6565 33.3031 30.9919 32.3031L37.9482 11.0111C38.2544 10.1045 37.9773 9.11781 37.2482 8.43781Z" fill="white"/>
<path opacity="0.4" d="M19.7832 30.5231C20.2091 30.9138 20.2091 31.5471 19.7832 31.9378L17.7912 33.7578C17.5782 33.9538 17.2982 34.0511 17.0182 34.0511C16.7382 34.0511 16.4582 33.9538 16.2453 33.7578C15.818 33.3671 15.818 32.7351 16.2453 32.3444L18.2359 30.5231C18.6632 30.1338 19.3559 30.1338 19.7832 30.5231ZM18.6403 25.4724C19.0662 25.8631 19.0662 26.4964 18.6403 26.8871L16.6483 28.7071C16.4353 28.9031 16.1553 29.0004 15.8753 29.0004C15.5953 29.0004 15.3153 28.9031 15.1024 28.7071C14.6751 28.3164 14.6751 27.6844 15.1024 27.2938L17.0931 25.4724C17.5203 25.0831 18.2131 25.0831 18.6403 25.4724ZM13.1553 23.8826C13.5811 24.2732 13.5811 24.9066 13.1553 25.2972L11.1632 27.1172C10.9503 27.3132 10.6703 27.4106 10.3903 27.4106C10.1103 27.4106 9.83026 27.3132 9.61734 27.1172C9.19005 26.7266 9.19005 26.0946 9.61734 25.7039L11.608 23.8826C12.0353 23.4932 12.728 23.4932 13.1553 23.8826Z" fill="white"/>
</svg>